<svg width="700" height="700" viewBox="0 0 700 700" fill="none" xmlns="http://www.w3.org/2000/svg">
<g clip-path="url(#clip0_256_3)">
<path d="M670.833 350C670.833 435.09 637.031 516.695 576.863 576.863C516.696 637.031 435.09 670.833 350 670.833C264.91 670.833 183.304 637.031 123.137 576.863C62.9687 516.695 29.1667 435.09 29.1667 350C29.142 325.448 31.9806 300.977 37.625 277.083C54.1323 206.624 93.9755 143.815 150.683 98.857C207.391 53.8993 277.633 29.4336 350 29.4336C422.367 29.4336 492.609 53.8993 549.317 98.857C606.025 143.815 645.868 206.624 662.375 277.083C668.019 300.977 670.858 325.448 670.833 350Z" fill="#9854CB"/>
<path d="M350 525C522.52 525 662.375 414.004 662.375 277.083C662.375 140.163 522.52 29.1665 350 29.1665C177.48 29.1665 37.625 140.163 37.625 277.083C37.625 414.004 177.48 525 350 525Z" fill="#C9A7F1"/>
<path d="M350 0C280.777 0 213.108 20.5271 155.551 58.9856C97.9934 97.4441 53.133 152.107 26.6423 216.061C0.15165 280.015 -6.77952 350.388 6.72531 418.282C20.2301 486.175 53.5644 548.539 102.513 597.487C151.461 646.436 213.825 679.77 281.719 693.275C349.612 706.78 419.985 699.849 483.939 673.358C547.894 646.867 602.556 602.007 641.015 544.45C679.473 486.892 700 419.223 700 350C699.9 257.205 662.993 168.239 597.377 102.623C531.761 37.0075 442.795 0.100365 350 0ZM350 641.667C292.314 641.667 235.923 624.561 187.959 592.512C139.995 560.463 102.611 514.911 80.5353 461.616C58.4597 408.321 52.6838 349.676 63.9378 293.099C75.1918 236.521 102.97 184.551 143.761 143.761C184.551 102.97 236.521 75.1917 293.099 63.9376C349.677 52.6836 408.321 58.4596 461.616 80.5351C514.911 102.611 560.463 139.994 592.512 187.959C624.561 235.923 641.667 292.314 641.667 350C641.582 427.329 610.826 501.466 556.146 556.146C501.466 610.825 427.329 641.582 350 641.667Z" fill="#391054"/>
<path d="M370.621 154.379C365.151 148.911 357.734 145.839 350 145.839C342.266 145.839 334.849 148.911 329.379 154.379L212.712 271.046C209.927 273.736 207.705 276.955 206.176 280.513C204.647 284.071 203.843 287.899 203.809 291.771C203.776 295.644 204.514 299.485 205.98 303.069C207.447 306.654 209.612 309.91 212.351 312.649C215.089 315.387 218.346 317.553 221.93 319.02C225.515 320.486 229.355 321.224 233.228 321.19C237.101 321.157 240.928 320.352 244.487 318.824C248.045 317.295 251.263 315.073 253.954 312.287L320.833 245.408V525C320.833 532.735 323.906 540.154 329.376 545.624C334.846 551.094 342.264 554.166 350 554.166C357.735 554.166 365.154 551.094 370.624 545.624C376.094 540.154 379.167 532.735 379.167 525V245.408L446.046 312.287C451.547 317.6 458.914 320.54 466.562 320.474C474.209 320.407 481.524 317.34 486.932 311.932C492.34 306.524 495.407 299.209 495.474 291.561C495.54 283.914 492.6 276.547 487.287 271.046L370.621 154.379Z" fill="#5B2676"/>
</g>
<defs>
<clipPath id="clip0_256_3">
<rect width="700" height="700" fill="white"/>
</clipPath>
</defs>
</svg>
