<svg width="124" height="124" viewBox="0 0 124 124" fill="none" xmlns="http://www.w3.org/2000/svg">
<path d="M78.0798 71.0672C74.4762 71.0672 72.0737 73.4361 72.0737 76.9895C72.0737 80.5428 69.6712 82.9117 66.0676 82.9117H60.0614V31.9802C60.0614 24.2813 55.2565 17.7668 48.6497 15.3979L39.0399 11.8445H66.0676C69.6712 11.8445 72.0737 14.2134 72.0737 17.7668C72.0737 21.3202 74.4762 23.6891 78.0798 23.6891C81.6835 23.6891 84.086 21.3202 84.086 17.7668C84.086 7.69895 76.278 0 66.0676 0H6.00614C5.40553 0 4.80491 -5.73616e-07 4.2043 0.592226C3.60368 0.592226 3.00307 1.18445 3.00307 1.18445C3.00307 1.18445 3.00307 1.18445 2.40246 1.77668C1.80184 1.77668 1.20123 2.36891 1.20123 2.96113C1.20123 2.96113 1.20123 2.96113 1.20123 3.55336C0.600613 3.55336 0 4.14559 0 4.73781C0 4.73781 0 4.73781 0 5.33004V5.92227V88.834C0 91.2029 1.80184 93.5718 3.60368 94.164L43.2442 108.97C44.4454 109.562 46.2473 109.562 47.4485 109.562C49.851 109.562 52.2534 108.97 54.0553 107.193C57.0583 104.824 59.4608 101.271 59.4608 97.7174V94.7563H65.4669C75.0768 94.7563 83.4854 87.0573 83.4854 76.9895C84.086 74.0283 81.0829 71.0672 78.0798 71.0672ZM12.0123 84.6884V14.2134L43.8448 26.058C46.2473 27.2424 48.0491 29.6113 48.0491 31.9802V88.834V97.7174L12.0123 84.6884Z" fill="white"/>
<path d="M105.456 109.761L117.99 94.2722C119.307 92.6461 121.507 92.5685 122.905 94.099C124.304 95.6296 124.37 98.1885 123.054 99.8147L104.51 122.728C103.853 123.54 102.937 124 101.979 124C101.02 124 100.104 123.54 99.4465 122.728L80.9028 99.8147C79.5867 98.1885 79.6534 95.6296 81.0517 94.099C82.4501 92.5685 84.6506 92.6461 85.9667 94.2722L98.5017 109.761V55.2609C98.5017 50.0502 94.8694 45.8261 90.3887 45.8261H69.5268C67.6065 45.8261 66.0498 44.0157 66.0498 41.7826C66.0498 39.5495 67.6065 37.7391 69.5268 37.7391H90.3887C98.7098 37.7391 105.456 45.584 105.456 55.2609V109.761Z" fill="white"/>
</svg>
