<svg width="800" height="800" viewBox="0 0 800 800" fill="none" xmlns="http://www.w3.org/2000/svg">
<g clip-path="url(#clip0_240_15)">
<path d="M100 100C86.7392 100 74.0215 105.268 64.6447 114.645C55.2678 124.021 50 136.739 50 150V229.273C49.9994 235.84 51.2927 242.343 53.806 248.411C56.3192 254.478 60.0032 259.991 64.6475 264.635L250 450V650C250 663.261 255.268 675.979 264.645 685.355C274.021 694.732 286.739 700 300 700H400C413.261 700 425.979 694.732 435.355 685.355C444.732 675.979 450 663.261 450 650V600H400V650H300V429.273L285.352 414.635L100 229.273V150H600V200H650V150C650 136.739 644.732 124.021 635.355 114.645C625.979 105.268 613.261 100 600 100H100Z" fill="#A333DA"/>
</g>
<defs>
<clipPath id="clip0_240_15">
<rect width="800" height="800" fill="white"/>
</clipPath>
</defs>
</svg>
