<svg width="101" height="100" viewBox="0 0 101 100" fill="none" xmlns="http://www.w3.org/2000/svg">
<path d="M84.2023 89.6875C83.3399 89.6875 82.6396 88.9525 82.6396 88.047V45.3905C82.6396 44.485 83.3399 43.75 84.2023 43.75C85.0646 43.75 85.7649 44.485 85.7649 45.3905V88.047C85.7649 88.9525 85.0646 89.6875 84.2023 89.6875Z" fill="white" stroke="white"/>
<path d="M15.4521 89.6875C14.5896 89.6875 13.8896 88.9525 13.8896 88.047V45.3905C13.8896 44.485 14.5896 43.75 15.4521 43.75C16.3146 43.75 17.0146 44.485 17.0146 45.3905V88.047C17.0146 88.9525 16.3146 89.6875 15.4521 89.6875Z" fill="white" stroke="white"/>
<path d="M49.8267 48.4483C49.5173 48.4483 49.2112 48.3533 48.9454 48.1628L10.9299 20.8498C10.2174 20.3379 10.0361 19.3174 10.5236 18.5693C11.0111 17.8212 11.9799 17.6276 12.6955 18.1427L49.8267 44.8193L77.8204 24.7085C78.5362 24.1966 79.5081 24.3902 79.9923 25.135C80.4799 25.8833 80.2986 26.9038 79.5862 27.4155L50.7112 48.1595C50.4423 48.3533 50.1362 48.4483 49.8267 48.4483Z" fill="white" stroke="white"/>
<path d="M88.8895 89.6875H10.7646C6.45839 89.6875 2.95215 86.006 2.95215 81.4845V25.703C2.95215 24.7975 3.65215 24.0625 4.51465 24.0625C5.37715 24.0625 6.07715 24.7975 6.07715 25.703V81.4845C6.07715 84.198 8.18028 86.4062 10.7646 86.4062H88.8895C91.474 86.4062 93.5771 84.198 93.5771 81.4845V25.703C93.5771 22.9895 91.474 20.7812 88.8895 20.7812C88.0271 20.7812 87.3271 20.0463 87.3271 19.1406C87.3271 18.235 88.0271 17.5 88.8895 17.5C93.1958 17.5 96.7021 21.1816 96.7021 25.703V81.4845C96.7021 86.006 93.1958 89.6875 88.8895 89.6875Z" fill="white" stroke="white"/>
<path d="M49.8271 63.4375C49.5177 63.4375 49.2085 63.3423 48.9395 63.1488L6.28339 32.259C4.19591 30.7497 2.95215 28.256 2.95215 25.5947C2.95215 21.1323 6.41152 17.5 10.6615 17.5H88.9895C93.2427 17.5 96.7021 21.1323 96.7021 25.5947C96.7021 28.256 95.4585 30.7465 93.3708 32.259L50.7148 63.1488C50.4458 63.3423 50.1366 63.4375 49.8271 63.4375ZM10.6615 20.7812C8.13339 20.7812 6.07715 22.9403 6.07715 25.5947C6.07715 27.1797 6.81778 28.6595 8.05841 29.5585L49.8271 59.8053L91.5958 29.5585C92.8366 28.6595 93.5771 27.1797 93.5771 25.5947C93.5771 22.9403 91.5208 20.7812 88.9927 20.7812H10.6615Z" fill="#F9F9F9" stroke="white"/>
</svg>
