<svg width="38" height="40" viewBox="0 0 38 40" fill="none" xmlns="http://www.w3.org/2000/svg">
<path d="M31.875 35.875C31.5473 35.875 31.2812 35.581 31.2812 35.2188V18.1562C31.2812 17.794 31.5473 17.5 31.875 17.5C32.2027 17.5 32.4688 17.794 32.4688 18.1562V35.2188C32.4688 35.581 32.2027 35.875 31.875 35.875Z" fill="#A68FB2" stroke="#A68FB2"/>
<path d="M5.75 35.875C5.42225 35.875 5.15625 35.581 5.15625 35.2188V18.1562C5.15625 17.794 5.42225 17.5 5.75 17.5C6.07775 17.5 6.34375 17.794 6.34375 18.1562V35.2188C6.34375 35.581 6.07775 35.875 5.75 35.875Z" fill="#A68FB2" stroke="#A68FB2"/>
<path d="M18.8126 19.3793C18.695 19.3793 18.5787 19.3413 18.4777 19.2651L4.03178 8.3399C3.76103 8.13515 3.69215 7.72696 3.8774 7.42771C4.06265 7.12846 4.43078 7.05102 4.70272 7.25709L18.8126 17.9277L29.4502 9.8834C29.7222 9.67865 30.0915 9.75609 30.2755 10.054C30.4608 10.3533 30.3919 10.7615 30.1212 10.9662L19.1487 19.2638C19.0465 19.3413 18.9302 19.3793 18.8126 19.3793Z" fill="#A68FB2" stroke="#A68FB2"/>
<path d="M33.6562 35.875H3.96875C2.33237 35.875 1 34.4024 1 32.5938V10.2812C1 9.919 1.266 9.625 1.59375 9.625C1.9215 9.625 2.1875 9.919 2.1875 10.2812V32.5938C2.1875 33.6792 2.98669 34.5625 3.96875 34.5625H33.6562C34.6383 34.5625 35.4375 33.6792 35.4375 32.5938V10.2812C35.4375 9.19581 34.6383 8.3125 33.6562 8.3125C33.3285 8.3125 33.0625 8.0185 33.0625 7.65625C33.0625 7.294 33.3285 7 33.6562 7C35.2926 7 36.625 8.47262 36.625 10.2812V32.5938C36.625 34.4024 35.2926 35.875 33.6562 35.875Z" fill="#A68FB2" stroke="#A68FB2"/>
<path d="M18.8125 25.375C18.6949 25.375 18.5774 25.3369 18.4752 25.2595L2.26587 12.9036C1.47263 12.2999 1 11.3024 1 10.2379C1 8.45294 2.31456 7 3.92956 7H33.6942C35.3104 7 36.625 8.45294 36.625 10.2379C36.625 11.3024 36.1524 12.2986 35.3591 12.9036L19.1498 25.2595C19.0476 25.3369 18.9301 25.375 18.8125 25.375ZM3.92956 8.3125C2.96887 8.3125 2.1875 9.17612 2.1875 10.2379C2.1875 10.8719 2.46894 11.4638 2.94038 11.8234L18.8125 23.9221L34.6846 11.8234C35.1561 11.4638 35.4375 10.8719 35.4375 10.2379C35.4375 9.17612 34.6561 8.3125 33.6954 8.3125H3.92956Z" fill="#A68FB2" stroke="#A68FB2"/>
</svg>
