<svg width="833" height="798" viewBox="0 0 833 798" fill="none" xmlns="http://www.w3.org/2000/svg">
<path d="M443.358 628.69L169.408 590.46L233.399 321.36L443.358 628.69Z" fill="#391054" stroke="#391054" stroke-width="20"/>
<path d="M515.179 317.322L610.689 182.455L566.531 373.485L397.647 557.348L283.279 389.941L508.315 322.258C511.089 321.424 513.505 319.687 515.179 317.322Z" fill="#C9A7F1" stroke="#391054" stroke-width="20"/>
<circle cx="322.473" cy="209.765" r="42.5" transform="rotate(55.6603 322.473 209.765)" fill="#C9A7F1" stroke="#391054" stroke-width="15"/>
<circle cx="624.797" cy="453.749" r="27.5" transform="rotate(55.6603 624.797 453.749)" fill="#C9A7F1" stroke="#391054" stroke-width="15"/>
<circle cx="479.807" cy="142.244" r="7.5" transform="rotate(55.6603 479.807 142.244)" fill="#C9A7F1" stroke="#391054" stroke-width="5"/>
<circle cx="118.654" cy="409.561" r="7.5" transform="rotate(55.6603 118.654 409.561)" fill="#C9A7F1" stroke="#391054" stroke-width="5"/>
<circle cx="370.545" cy="657.723" r="7.5" transform="rotate(55.6603 370.545 657.723)" fill="#C9A7F1" stroke="#391054" stroke-width="5"/>
<circle cx="521.698" cy="607.748" r="7.5" transform="rotate(55.6603 521.698 607.748)" fill="#C9A7F1" stroke="#391054" stroke-width="5"/>
<circle cx="679.743" cy="333.857" r="7.5" transform="rotate(55.6603 679.743 333.857)" fill="#C9A7F1" stroke="#391054" stroke-width="5"/>
</svg>
