<svg width="128" height="99" viewBox="0 0 128 99" fill="none" xmlns="http://www.w3.org/2000/svg">
<path d="M19.0707 49.8802C20.1826 49.806 21.2195 49.2932 21.9533 48.4546C22.6871 47.6159 23.0577 46.5201 22.9836 45.4082C22.9095 44.2963 22.3967 43.2594 21.558 42.5256C20.7194 41.7918 19.6236 41.4212 18.5117 41.4953L10.9618 41.1241C10.4054 41.0674 9.8434 41.1232 9.30912 41.2883C8.77485 41.4533 8.27926 41.7243 7.85189 42.0849C7.42453 42.4455 7.07413 42.8885 6.82157 43.3874C6.56901 43.8863 6.41947 44.431 6.38184 44.9889C6.34422 45.5468 6.41928 46.1066 6.60257 46.6349C6.78585 47.1632 7.07361 47.6493 7.44868 48.064C7.82376 48.4788 8.27848 48.8138 8.78576 49.0491C9.29304 49.2844 9.84249 49.4152 10.4014 49.4336L17.9756 49.9275C18.3407 49.9738 18.711 49.9578 19.0707 49.8802ZM30.3141 23.904C30.7305 24.7481 31.4204 25.4264 32.2715 25.8283C33.1226 26.2303 34.0847 26.3322 35.0011 26.1176C35.3643 26.1043 35.723 26.0331 36.0637 25.9068C37.0441 25.414 37.7906 24.5544 38.141 23.5146C38.4914 22.4748 38.4176 21.3387 37.9354 20.353L34.5875 13.541C34.357 13.0315 34.0264 12.5735 33.6153 12.1945C33.2041 11.8155 32.7209 11.5231 32.1944 11.3348C31.6678 11.1464 31.1088 11.066 30.5505 11.0983C29.9923 11.1306 29.4462 11.2749 28.9449 11.5226C28.4436 11.7704 27.9973 12.1166 27.6326 12.5404C27.2678 12.9643 26.9922 13.4573 26.822 13.99C26.6518 14.5226 26.5906 15.0841 26.642 15.641C26.6934 16.1978 26.8564 16.7386 27.1212 17.2311L30.3141 23.904ZM58.1625 60.8579C57.701 60.5317 57.1779 60.3029 56.6251 60.1852C56.0724 60.0676 55.5014 60.0637 54.9471 60.1736C54.3927 60.2836 53.8665 60.5052 53.4005 60.825C52.9345 61.1447 52.5384 61.5559 52.2364 62.0336L40.8183 79.4212C39.4566 81.3685 37.3948 82.7139 35.0641 83.1763C32.7333 83.6387 30.3141 83.1822 28.3121 81.9023C27.322 81.2492 26.4715 80.406 25.8098 79.4216C25.1482 78.4371 24.6887 77.3311 24.4579 76.1677C24.227 75.0043 24.2296 73.8066 24.4653 72.6442C24.701 71.4817 25.1652 70.3777 25.831 69.3961L37.5429 52.205C37.898 51.7537 38.156 51.2339 38.3008 50.6782C38.4455 50.1225 38.4738 49.5428 38.3839 48.9757C38.2939 48.4085 38.0877 47.866 37.7782 47.3823C37.4687 46.8986 37.0625 46.4841 36.5852 46.1648C36.1079 45.8456 35.5697 45.6284 35.0045 45.527C34.4393 45.4255 33.8592 45.442 33.3006 45.5754C32.7421 45.7089 32.2171 45.9563 31.7588 46.3022C31.3004 46.6481 30.9184 47.085 30.6369 47.5856L18.7943 64.7601C17.5208 66.6639 16.6348 68.8 16.1868 71.0462C15.7388 73.2925 15.7376 75.605 16.1833 77.8518C16.6291 80.0985 17.513 82.2354 18.7845 84.1405C20.0561 86.0457 21.6905 87.6817 23.5943 88.9552C25.4982 90.2287 27.6342 91.1147 29.8805 91.5627C32.1268 92.0107 34.4393 92.0119 36.686 91.5661C38.9328 91.1204 41.0697 90.2365 42.9748 88.965C44.88 87.6934 46.516 86.059 47.7895 84.1551L59.3544 66.8658C59.6934 66.4008 59.9323 65.8706 60.0562 65.3087C60.1801 64.7467 60.1862 64.1652 60.0742 63.6008C59.9623 63.0364 59.7346 62.5013 59.4056 62.0292C59.0765 61.5571 58.6533 61.1583 58.1625 60.8579ZM17.5439 33.1916C18.455 33.7956 19.5669 34.0174 20.64 33.8092C21.1785 33.7056 21.6912 33.4968 22.1488 33.1946C22.6064 32.8924 22.9999 32.5029 23.3066 32.0483C23.9159 31.1315 24.1377 30.0109 23.9235 28.9312C23.7093 27.8515 23.0765 26.9004 22.1634 26.2856L15.8452 22.0593C14.9305 21.5449 13.8554 21.3945 12.8346 21.6383C11.8139 21.8821 10.9228 22.5021 10.3393 23.3744C9.75584 24.2467 9.523 25.307 9.68734 26.3435C9.85167 27.38 10.4011 28.3163 11.2257 28.9653L17.5439 33.1916ZM89.2064 50.1114L81.6322 49.6176C81.0626 49.5391 80.4829 49.5793 79.9296 49.7358C79.3763 49.8922 78.8614 50.1615 78.4172 50.5267C77.9731 50.8918 77.6093 51.345 77.3488 51.8576C77.0883 52.3701 76.9368 52.9311 76.9036 53.5051C76.8705 54.0792 76.9565 54.6539 77.1563 55.193C77.3561 55.7322 77.6653 56.2242 78.0645 56.638C78.4637 57.0518 78.9443 57.3785 79.4759 57.5976C80.0075 57.8167 80.5787 57.9234 81.1536 57.9109L88.7278 58.4048L89.7904 58.1939C90.9023 58.1198 91.9392 57.607 92.673 56.7684C93.4069 55.9297 93.7775 54.8339 93.7033 53.722C93.6292 52.6101 93.1164 51.5732 92.2778 50.8394C91.4391 50.1056 90.3433 49.735 89.2314 49.8091L89.2064 50.1114ZM69.2937 75.6411C69.0491 75.1511 68.7102 74.7141 68.2965 74.3552C67.8828 73.9963 67.4024 73.7225 66.8828 73.5494C66.3632 73.3763 65.8146 73.3074 65.2683 73.3465C64.722 73.3856 64.1888 73.5321 63.6991 73.7775C62.7187 74.2702 61.9723 75.1298 61.6218 76.1696C61.2714 77.2094 61.3453 78.3455 61.8274 79.3312L65.1754 86.1433C65.5918 86.9874 66.2817 87.6656 67.1328 88.0676C67.9839 88.4695 68.946 88.5715 69.8624 88.3568C70.2234 88.3269 70.5799 88.2562 70.925 88.146C71.4196 87.905 71.8615 87.5684 72.2253 87.1557C72.5891 86.743 72.8675 86.2623 73.0446 85.7415C73.2217 85.2206 73.2938 84.6698 73.2569 84.1209C73.22 83.5719 73.0747 83.0358 72.8295 82.5433L69.2937 75.6411ZM82.0801 66.4352C81.1654 65.9208 80.0903 65.7704 79.0696 66.0142C78.0488 66.258 77.1577 66.878 76.5742 67.7503C75.9908 68.6226 75.7579 69.6829 75.9223 70.7194C76.0866 71.7559 76.636 72.6922 77.4607 73.3412L83.7789 77.5675C84.6956 78.1768 85.8163 78.3985 86.896 78.1843C87.9757 77.9701 88.9268 77.3373 89.5416 76.4242C90.1508 75.5074 90.3726 74.3868 90.1584 73.3071C89.9442 72.2274 89.3114 71.2763 88.3983 70.6615L82.0801 66.4352ZM83.3503 21.8779C82.7396 18.4667 81.1204 15.3169 78.7017 12.8351C76.283 10.3533 73.176 8.65344 69.7816 7.95502C66.3873 7.25661 62.8615 7.59167 59.6595 8.91697C56.4575 10.2423 53.7262 12.4969 51.8183 15.3899L40.2777 32.8019C39.9685 33.2677 39.754 33.7898 39.6465 34.3385C39.5391 34.8871 39.5408 35.4516 39.6515 35.9996C39.7622 36.5476 39.9797 37.0685 40.2917 37.5324C40.6037 37.9964 41.004 38.3943 41.4698 38.7036C41.9356 39.0128 42.4577 39.2273 43.0063 39.3347C43.555 39.4422 44.1195 39.4405 44.6675 39.3298C45.2155 39.2191 45.7364 39.0016 46.2003 38.6896C46.6643 38.3776 47.0622 37.9773 47.3715 37.5115L58.7895 20.1239C60.1512 18.1766 62.213 16.8311 64.5438 16.3687C66.8745 15.9063 69.2938 16.3628 71.2957 17.6427C72.2858 18.2959 73.1364 19.1391 73.798 20.1235C74.4596 21.1079 74.9192 22.2139 75.15 23.3774C75.3808 24.5408 75.3782 25.7385 75.1425 26.9009C74.9068 28.0633 74.4426 29.1674 73.7768 30.149L62.0649 47.3401C61.4557 48.2568 61.2339 49.3775 61.4481 50.4572C61.6623 51.5369 62.2951 52.488 63.2082 53.1028C64.125 53.7121 65.2456 53.9338 66.3253 53.7196C67.4051 53.5054 68.3562 52.8726 68.9709 51.9595L80.8135 34.785C83.3096 30.9779 84.2199 26.3465 83.3503 21.8779Z" fill="#4A0078"/>
<path d="M87.6969 25.854C97.8204 21.4747 127 8 127 8L121.194 46.066C120.896 47.9187 118.961 48.5925 117.77 47.4134L108.688 38.8233L102.287 45.5607L103.329 34.2756L122.683 13.5583L98.8626 30.4017L100.351 40.0024L95.4384 31.0754L87.9947 28.3805C86.8037 27.8752 86.6548 26.1908 87.6969 25.854Z" stroke="#4A0078" stroke-width="1.25" stroke-miterlimit="10" stroke-linecap="round" stroke-linejoin="round"/>
</svg>
