<svg viewBox="0 0 24 24" xmlns="http://www.w3.org/2000/svg"><path d="m17.607 14.79 4.8 4.8a1.994 1.994 0 0 1-2.82 2.82l-4.8-4.8Z" fill="#c69fed" class="fill-9e9da5"></path><path d="M19 10a9 9 0 0 1-18 0 8.637 8.637 0 0 1 .36-2.5 8.992 8.992 0 0 1 17.28 0A8.637 8.637 0 0 1 19 10Z" fill="#c182ff" class="fill-2eb1b7"></path><ellipse cx="10" cy="7.5" rx="8.64" ry="6.5" fill="#c69fed" class="fill-5dc6d1"></ellipse><path d="M5 11a1 1 0 0 1-1-1 6.006 6.006 0 0 1 6-6 1 1 0 0 1 0 2 4 4 0 0 0-4 4 1 1 0 0 1-1 1Z" fill="#eaeaea" class="fill-eaeaea"></path><path d="M18.856 14.624a10.022 10.022 0 1 0-4.234 4.234l4.254 4.255a2.994 2.994 0 1 0 4.239-4.23ZM2 10a8 8 0 1 1 8 8 8.009 8.009 0 0 1-8-8Zm19.7 11.708a1 1 0 0 1-1.4 0l-3.967-3.968a10.092 10.092 0 0 0 1.4-1.406l3.972 3.966a.976.976 0 0 1-.009 1.407Z" data-name="Layer 4" fill="#4f227d" class="fill-6c2e7c"></path></svg>